<svg id="dataset-icon" xmlns="http://www.w3.org/2000/svg" width="30" height="30" viewBox="0 0 30 30">
  <defs>
    <style>
      .cls-1 {
        fill: none;
      }

      .cls-2 {
        fill: #a5a5a5;
      }
    </style>
  </defs>
  <path id="패스_1396" data-name="패스 1396" class="cls-1" d="M0,0H30V30H0Z"/>
  <path id="패스_1397" data-name="패스 1397" class="cls-2" d="M27,11.553V15.5c0,3.27-5.373,5.921-12,5.921S3,18.77,3,15.5V11.553c0,3.27,5.373,5.921,12,5.921S27,14.822,27,11.553ZM3,18.132c0,3.27,5.373,5.921,12,5.921S27,21.4,27,18.132v3.947C27,25.349,21.627,28,15,28S3,25.349,3,22.079Zm12-3.289c-6.627,0-12-2.651-12-5.921S8.373,3,15,3,27,5.651,27,8.921,21.627,14.842,15,14.842Z" transform="translate(0)"/>
</svg>
