<svg xmlns="http://www.w3.org/2000/svg" width="180" height="45" viewBox="0 0 180 45">
    <defs>
        <style>
            .cls-1{fill:#6560e1}.cls-2{fill:#474747}
        </style>
    </defs>
    <g id="Logo" transform="translate(-734.796 -367.83)">
        <path id="패스_60" d="M1226.782 422.878a4.93 4.93 0 0 0-5.868 2.107c-1.555 2.786.015 5.993 3.3 6.655.664.134.906.351.837.992a17.315 17.315 0 0 0-.015 1.867l.257.13a23.833 23.833 0 0 0 2.221-2.49 17.592 17.592 0 0 0 2.333-4.138c.702-2.116-.797-4.347-3.065-5.123z" class="cls-1" transform="translate(-315.288 -36.869)"/>
        <path id="패스_61" d="M1224.652 378.272a5.1 5.1 0 1 0-4.978-5.235 5.01 5.01 0 0 0 4.978 5.235z" class="cls-1" transform="translate(-314.876 -.152)"/>
        <path id="사각형_9" d="M0 0H25.22V10.231H0z" class="cls-2" transform="translate(875.469 367.83)"/>
        <path id="패스_62" d="M1136 485.632h39.347l.078-9.285H1136z" class="cls-2" transform="translate(-260.655 -72.85)"/>
        <path id="패스_63" d="M1137.222 431.384h14.927v-.016h9.339v-9.382h-24.266v.037h-.869v9.355h.869z" class="cls-2" transform="translate(-260.884 -36.358)"/>
        <path id="패스_64" d="M814.062 368.1l-.217 28.432a10.473 10.473 0 0 1-.469 2.712 5.468 5.468 0 0 1-2.6 2.989q-2.13 1.328-7.111 1.328-9.746 0-9.746-7.306v-.143l-.069-2.252-.006-2.074v-23.722h-13.281l-16.242 32.1-16.242-32.1H734.8v44.167h13.282v-19.7l9.673 19.648h13.135l8.36-16.981 1.313-2.667v1.333l.035 1.628.039.652v.115q0 6.089 6.028 11.346t17 5.258a36.862 36.862 0 0 0 10.179-1.264v1.386h13.037l.219-44.885z" class="cls-2" transform="translate(0 -.152)"/>
        <path id="패스_65" d="M1048.885 367.83h-40.794v9.693h.438v.01h.192v-.01h14.091v-.03h9.688l-24.607 26.458v8.856h40.673v-8.857h-23.936l24.255-26.458z" class="cls-2" transform="translate(-177.43)"/>
    </g>
</svg>
