<?xml version="1.0" encoding="utf-8"?>
<!-- Svg Vector Icons : http://www.onlinewebfonts.com/icon -->
<!DOCTYPE svg PUBLIC "-//W3C//DTD SVG 1.1//EN" "http://www.w3.org/Graphics/SVG/1.1/DTD/svg11.dtd">
<svg version="1.1" xmlns="http://www.w3.org/2000/svg" xmlns:xlink="http://www.w3.org/1999/xlink" x="0px" y="0px" viewBox="0 0 1000 1000" enable-background="new 0 0 1000 1000" xml:space="preserve">
<metadata> Svg Vector Icons : http://www.onlinewebfonts.com/icon </metadata>
<g><g transform="translate(0.000000,511.000000) scale(0.100000,-0.100000)"><path d="M322.3,3180.8L100,2953.4l1652.9-1709.1C2662.4,304.2,3413.5-467.4,3423.7-472.5c10.2-5.1,388.3,375.6,843.1,843.1c452.2,467.5,832.9,850.7,845.6,850.7c17.9,0,3167.9-3242,3561.3-3666.1l76.6-81.8l-592.7,10.2l-595.3,10.2v-324.4v-321.9l633.6-15.3c347.4-10.2,845.6-17.9,1111.3-17.9H9785l2.5,109.8c0,58.8,25.5,574.8,56.2,1144.5L9900-891.5l-166.1,15.3c-92,7.7-229.9,15.3-309.1,15.3h-145.6l-15.4-132.9c-7.6-74.1-20.4-319.3-30.6-544.2c-10.2-224.8-25.5-429.2-33.2-454.7c-12.8-33.2-472.6,429.2-2043.8,2051.5C6042.3,1211.1,5122.6,2153.8,5112.4,2153.8c-10.2,0-316.8-306.6-679.6-682.1c-362.8-378.1-735.8-763.9-830.3-858.4l-168.6-173.7L2051.8,1865.1C1293.1,2649.4,644.2,3316.2,608.4,3346.9l-61.3,58.8L322.3,3180.8z"/></g></g>
</svg>